<svg width="30" height="29" viewBox="0 0 30 29" fill="none" xmlns="http://www.w3.org/2000/svg">
<path d="M5.88273 4.01013L9.02335 4.03279C7.87491 5.14294 7.19523 6.57029 6.96085 8.17888L5.76554 8.15623C4.47647 8.11091 3.46866 7.18201 3.4921 6.04919C3.4921 4.89373 4.54679 4.01013 5.88273 4.01013ZM15.3046 21.5008C15.5155 21.9992 16.9218 24.7633 16.9218 24.7633H12.914C12.914 24.7633 14.203 22.1578 14.4843 21.5008C14.7187 21.0023 15.0702 20.9797 15.3046 21.5008Z" fill="white"/>
<path d="M26.9297 10.8523C26.6719 11.8265 25.6406 12.5515 24.375 12.5515H23.2031C23.1328 12.5742 23.0859 12.6195 23.1094 12.6875V24.7633H20.9766L16.875 16.5617C17.2969 16.1086 17.5547 15.4968 17.5547 14.8398C17.5547 13.7523 16.8984 12.7781 15.9141 12.3929V11.2828C15.9141 10.807 15.4922 10.4672 15 10.4672H14.9531C14.4609 10.4672 14.0391 10.875 14.0391 11.3507V12.3929C12.9609 12.7328 12.1641 13.707 12.1641 14.8851C12.1641 15.5648 12.4453 16.1992 12.8906 16.6523L8.90625 24.7859H5.41406C4.07813 24.7859 3.02344 23.7437 3.02344 22.4523V6.72887C3.02344 6.72887 3.02344 6.59294 3.04688 6.72887C3.23438 7.81637 4.21875 8.65465 5.41406 8.67731H23.4375C23.4141 8.67731 26.8594 8.38278 26.9297 10.8523Z" fill="white"/>
<path d="M14.8359 13.5484C15.5625 13.5484 16.1719 14.1375 16.1484 14.8625C16.1484 15.5648 15.5391 16.1539 14.7891 16.1312C14.0625 16.1312 13.4766 15.5422 13.4766 14.8398C13.4766 14.5 13.6172 14.1828 13.875 13.9336C14.1563 13.6844 14.4844 13.5484 14.8359 13.5484ZM15.375 12.8008V11.4414C15.375 11.2828 15.3047 11.1469 15.1641 11.0789C14.9531 10.9656 14.6953 11.0336 14.5781 11.2375C14.5313 11.3055 14.5078 11.3734 14.5313 11.4641V12.7781C13.3594 12.9594 12.5391 14.0242 12.7266 15.1797V15.2023C12.8203 15.7461 13.125 16.2445 13.5938 16.5617L8.60156 26.9156C8.41406 27.2781 8.4375 27.7312 8.69531 28.0711C9.07031 28.5922 9.79688 28.7281 10.3359 28.3656C10.5234 28.2523 10.6641 28.0711 10.7578 27.8898L14.0625 20.957C14.2734 20.5039 14.8359 20.3 15.3281 20.5266C15.5156 20.6172 15.6797 20.7758 15.7734 20.957L19.1719 27.8219C19.4531 28.3883 20.1563 28.6148 20.7422 28.343C21.3281 28.0711 21.5625 27.3914 21.2813 26.825L16.1719 16.5164C17.1094 15.7914 17.2734 14.4547 16.5234 13.5484C16.2422 13.1859 15.8438 12.9367 15.375 12.8008ZM18.6563 2.92266H18.6328L19.875 0.838281C19.9453 0.725 19.8984 0.589062 19.8047 0.498438C19.6875 0.453125 19.5703 0.475781 19.5 0.566406L18.1875 2.71875C16.1484 1.83516 13.8047 1.83516 11.7422 2.71875L10.4766 0.589062C10.4297 0.521094 10.3359 0.453125 10.2422 0.453125C10.1484 0.453125 10.0547 0.498437 10.0078 0.589062C9.96094 0.679687 9.96094 0.770312 10.0078 0.838281L11.2734 2.92266C9.21094 4.03281 7.85156 5.93594 7.52344 8.15625H22.4766C22.125 5.93594 20.7188 4.03281 18.6563 2.92266ZM12 6.34375L11.9063 6.43437C11.7891 6.54766 11.625 6.61562 11.4609 6.61562H11.4844C11.1328 6.61562 10.8516 6.34375 10.8516 6.02656V6.00391C10.8516 5.84531 10.9219 5.68672 11.0391 5.57344C11.25 5.32422 11.6484 5.27891 11.9063 5.48281C12.2109 5.68672 12.2344 6.07187 12 6.34375ZM18.4219 6.57031C18.0703 6.59297 17.7891 6.32109 17.7891 5.98125V5.95859C17.7891 5.8 17.8594 5.64141 17.9766 5.52812C18.2109 5.30156 18.6094 5.30156 18.8672 5.52812C18.9844 5.64141 19.0547 5.8 19.0547 5.95859C19.0547 6.32109 18.7734 6.57031 18.4219 6.57031ZM24.7734 13.1406H23.7891C23.7422 13.1633 23.6953 13.2086 23.6953 13.2766V28.343C23.6953 28.4109 23.7422 28.4562 23.8125 28.4562H24.8438C26.0391 28.4562 27 27.5047 27 26.3719C27 26.3719 26.9766 12.5289 27 12.0078C27.0234 11.4641 26.8828 11.8492 26.8359 11.9625C26.4844 12.6875 25.7109 13.1633 24.8203 13.1633H24.7734V13.1406Z" fill="white"/>
<path d="M14.8359 15.5649C15.2502 15.5649 15.5859 15.2403 15.5859 14.8399C15.5859 14.4395 15.2502 14.1149 14.8359 14.1149C14.4217 14.1149 14.0859 14.4395 14.0859 14.8399C14.0859 15.2403 14.4217 15.5649 14.8359 15.5649Z" fill="white"/>
</svg>
