<svg width="30" height="30" viewBox="0 0 30 30" fill="none" xmlns="http://www.w3.org/2000/svg">
<path d="M29.8788 7.59095L29.9622 7.54244C29.7954 7.27567 29.5453 7.03314 29.2951 6.91188L15.8705 0.169766C15.6482 0.0485045 15.3424 0 15.0089 0C14.6754 0 14.3696 0.0727567 14.1473 0.169766L0.806033 6.93614C0.333531 7.17866 0 7.78496 0 8.24576V21.7542C0 22.021 0.0555884 22.312 0.250148 22.5788L0.19456 22.6031C0.333531 22.7971 0.528091 22.9669 0.72265 23.0639L14.1195 29.8302C14.3418 29.9515 14.6476 30 14.9811 30C15.3146 30 15.6204 29.9272 15.8427 29.8302L29.1839 23.0639C29.6564 22.8213 29.99 22.215 29.99 21.7542V8.2215C30.0178 8.02748 29.99 7.80922 29.8788 7.59095ZM15.0089 24.5675C8.94974 24.5675 4.03016 20.2749 4.03016 14.9879C4.03016 9.70089 8.94974 5.40825 15.0089 5.40825C19.0946 5.40825 22.6523 7.37268 24.5423 10.2587L20.9291 12.0776C19.7617 10.2587 17.5382 9.04608 15.0089 9.04608C11.2567 9.04608 8.1993 11.7138 8.1993 14.9879C8.1993 18.2619 11.2567 20.9297 15.0089 20.9297C17.5382 20.9297 19.7617 19.7171 20.9291 17.9224L24.5145 19.7656C22.6245 22.6273 19.0668 24.5675 15.0089 24.5675ZM29.1839 14.5028H28.2945L28.0444 15.4729H29.1839V16.6855H27.7942L27.4607 18.1407H26.0988L26.4323 16.6855H25.3761L25.0426 18.1407H23.7085L24.042 16.6855H23.3472V15.4729H24.32L24.5701 14.5028H23.3472V13.2902H24.8203L25.1538 11.8351H26.5157L26.1822 13.2902H27.2383L27.5719 11.8351H28.906L28.5725 13.2902H29.1839V14.5028ZM25.6541 15.4729H26.7103L26.9604 14.5028H25.9042L25.6541 15.4729Z" fill="white"/>
</svg>
