<svg width="30" height="30" viewBox="0 0 30 30" fill="none" xmlns="http://www.w3.org/2000/svg">
<g clip-path="url(#clip0_149_16)">
<path d="M14.3426 0H15.5034C18.5311 0.125391 21.5241 1.14609 23.951 2.97094C26.25 4.6793 28.0462 7.05773 29.0433 9.74578C29.6154 11.2427 29.902 12.8348 30 14.4314V15.4184C29.903 18.0652 29.1412 20.6965 27.7195 22.9376C26.1255 25.4911 23.7534 27.5618 20.9866 28.7566C19.1753 29.5421 17.2275 29.9645 15.2536 30H14.7511C12.0007 29.9552 9.26437 29.1422 6.94711 27.6581C4.32305 25.991 2.23289 23.4898 1.08117 20.5995C0.443203 19.0289 0.103359 17.3484 0 15.6591V14.4973C0.118125 11.1246 1.39523 7.79203 3.61172 5.24039C5.43 3.11953 7.85156 1.51875 10.5204 0.688359C11.7591 0.297656 13.0491 0.0960938 14.3426 0ZM5.90414 8.79445C5.89711 11.6428 5.90156 14.4909 5.90156 17.3384C6.23672 17.3409 6.57188 17.3409 6.90773 17.3409C6.89016 14.8957 6.93141 12.4512 6.88289 10.0066C6.99539 10.2192 7.09805 10.4379 7.22625 10.6411C8.68008 12.8695 10.1027 15.1172 11.5568 17.3438C11.9641 17.3384 12.3715 17.3384 12.7788 17.3447C12.7781 14.4947 12.7772 11.6447 12.7798 8.79469C12.4477 8.79146 12.1157 8.79052 11.7837 8.79187C11.8013 11.2106 11.7518 13.6294 11.813 16.0455C10.2879 13.6193 8.74242 11.2069 7.19695 8.79281C6.76602 8.79015 6.33507 8.7907 5.90414 8.79445ZM15.0082 8.79187C14.978 11.6419 15.0073 14.4919 14.9972 17.3409C16.5134 17.3374 18.0295 17.3466 19.5464 17.3363C19.541 17.0275 19.5428 16.7187 19.552 16.41C18.3773 16.4062 17.202 16.4116 16.0263 16.4053C16.009 15.4186 16.0254 14.4305 16.017 13.4435C17.047 13.4252 18.0771 13.4463 19.106 13.4325C19.1034 13.1332 19.1034 12.8339 19.1016 12.5344C18.0734 12.5674 17.0454 12.5217 16.0163 12.5372C16.0191 11.5943 16.0209 10.6505 16.0209 9.70641C17.1223 9.70641 18.2236 9.70172 19.324 9.70922C19.3221 9.4043 19.324 9.09844 19.3277 8.79375C17.8875 8.79 16.4473 8.79187 15.0082 8.79187ZM20.3055 8.80453C20.3065 9.10125 20.3065 9.39703 20.3074 9.69281C21.1249 9.68344 21.9415 9.71836 22.759 9.70102C22.7536 12.247 22.7599 14.7912 22.7564 17.3355C23.0986 17.3456 23.4431 17.3438 23.7853 17.3145C23.7572 15.9101 23.813 14.5048 23.7488 13.1011C23.7645 12.4685 23.7323 11.8369 23.7762 11.205C23.801 10.7034 23.7113 10.2026 23.768 9.70102C24.592 9.71203 25.4168 9.70453 26.2406 9.70453C26.2369 9.40504 26.2427 9.10552 26.2582 8.80641C24.2733 8.7818 22.2886 8.78438 20.3055 8.80453ZM3.17578 16.1939C2.71242 16.4072 2.68219 17.1368 3.14086 17.3721C3.54398 17.6487 4.14984 17.2852 4.13156 16.8073C4.16273 16.3376 3.59484 15.9429 3.17578 16.1939ZM10.0266 19.7773C9.02414 20.5903 9.03609 22.4011 10.1437 23.1171C10.7691 23.5144 11.5739 23.4321 12.2348 23.1675C12.2377 23.022 12.2412 22.8771 12.2466 22.7316C11.6205 23.0585 10.7442 23.1253 10.2134 22.5886C9.51844 21.8299 9.675 20.4162 10.5914 19.8989C11.1096 19.6261 11.7415 19.7058 12.2522 19.9549C12.2505 19.8002 12.2513 19.6455 12.2522 19.4909C11.5263 19.2333 10.6298 19.2471 10.0266 19.7773ZM14.0595 20.4124C13.6165 20.464 13.1787 20.6984 12.9736 21.1076C12.6799 21.6926 12.7137 22.4827 13.1761 22.9732C13.653 23.5116 14.5695 23.517 15.0933 23.0428C15.6616 22.5019 15.7259 21.5269 15.2707 20.895C15.0016 20.5132 14.5036 20.3831 14.0595 20.4124ZM18.2517 21.0506C17.8627 21.7263 17.9395 22.7498 18.6262 23.2095C19.1379 23.4954 19.7824 23.4045 20.2842 23.1373C20.2833 22.9927 20.2852 22.8478 20.2915 22.7041C19.8961 22.9549 19.3687 23.1391 18.9293 22.8863C18.6225 22.717 18.5299 22.3573 18.4807 22.0366C19.1545 22.0275 19.8274 22.0174 20.5022 22.0193C20.4846 21.5909 20.4745 21.1066 20.1623 20.7752C19.647 20.2057 18.6052 20.3869 18.2517 21.0506ZM16.2797 20.5031V23.3175C16.4325 23.3175 16.5872 23.3175 16.7421 23.3184C16.7475 22.804 16.7327 22.2886 16.7475 21.773C16.7513 21.4753 16.871 21.1734 17.0953 20.9728C17.283 20.831 17.5366 20.9095 17.7518 20.9152C17.749 20.7661 17.7471 20.6175 17.7464 20.4694C17.3262 20.3761 16.9645 20.6222 16.7522 20.9655C16.7475 20.8172 16.7428 20.6688 16.7402 20.5216C16.5865 20.516 16.4325 20.5097 16.2797 20.5031Z" fill="white"/>
<path d="M13.7713 20.9117C14.1585 20.723 14.7142 20.8156 14.9303 21.2164C15.1764 21.6586 15.171 22.2436 14.8982 22.6721C14.5419 23.2079 13.6028 23.0907 13.3693 22.4982C13.1331 21.9689 13.2247 21.2131 13.7713 20.9117ZM18.5249 21.6596C18.5357 21.2907 18.793 20.9243 19.1638 20.8439C19.3925 20.8055 19.6553 20.8456 19.8137 21.0298C19.9712 21.1971 20.0043 21.4315 20.0434 21.6486C19.5372 21.6514 19.0311 21.6413 18.5249 21.6596Z" fill="white"/>
</g>
<defs>
<clipPath id="clip0_149_16">
<rect width="30" height="30" fill="white"/>
</clipPath>
</defs>
</svg>
