<svg width="28" height="30" viewBox="0 0 28 30" fill="none" xmlns="http://www.w3.org/2000/svg">
<path d="M27.7091 23.0719C26.7116 23.3438 26.0947 23.0836 25.5413 22.193C24.2988 20.1985 22.9272 18.2953 21.6038 16.3571C21.4332 16.1063 21.256 15.8602 21.035 15.5485C19.4688 17.8125 17.9047 19.9688 16.4369 22.2117C15.9119 23.0133 15.3607 23.3625 14.3807 23.0789L20.2694 14.611L14.7875 6.96331C15.7304 6.76644 16.3822 6.86722 16.9597 7.7719C18.235 9.76878 19.6416 11.6696 21.0438 13.6805C22.4547 11.6766 23.8438 9.77347 25.1563 7.79534C25.6835 6.99378 26.25 6.68909 27.1972 6.9844C26.4797 8.00394 25.7775 9.00706 25.071 10.0032C24.1172 11.3461 23.181 12.7055 22.1922 14.0203C21.84 14.4891 21.8969 14.7938 22.2119 15.2367C24.0407 17.8125 25.8475 20.4141 27.7091 23.0719ZM0.290986 14.4703C0.448486 13.6242 0.553486 12.7617 0.772236 11.9321C2.08474 6.9094 7.46599 4.82112 11.1629 7.93362C13.3285 9.7594 13.8666 12.3328 13.7594 15.2344H1.55317C1.36942 20.4399 4.86724 23.5828 9.32536 21.9797C10.8894 21.4172 11.8104 20.1047 12.2719 18.4641C12.506 17.6414 12.8932 17.5125 13.615 17.7469C13.2454 19.8 12.4075 21.5157 10.6575 22.5891C8.03255 24.1969 4.28536 23.6766 2.31442 21.443C1.15067 20.1305 0.656299 18.4969 0.437549 16.7321C0.404736 16.4508 0.336924 16.1742 0.284424 15.8953C0.288799 15.4203 0.290986 14.9453 0.290986 14.4703ZM1.57505 14.1211H12.6066C12.5344 10.3571 10.3469 7.68284 7.35661 7.6594C4.07536 7.63128 1.71724 10.2422 1.57505 14.1211Z" fill="white"/>
</svg>
