<svg width="28" height="29" viewBox="0 0 28 29" fill="none" xmlns="http://www.w3.org/2000/svg">
<path d="M27.2653 12.6653L15.7714 0.760954C15.284 0.253652 14.642 0 14 0C13.358 0 12.716 0.253652 12.2286 0.760954L9.9555 3.11523L12.7683 6.02853C13.7028 5.45966 14.9202 5.5828 15.7215 6.4127C16.5228 7.24261 16.6393 8.50348 16.09 9.46883L18.8553 12.3329C19.7897 11.764 21.0071 11.8871 21.8084 12.7171C22.7595 13.7021 22.7595 15.2979 21.8084 16.2829C20.8573 17.268 19.3166 17.268 18.3655 16.2829C17.5642 15.453 17.4453 14.1922 17.9946 13.2244L15.2293 10.3603C15.0319 10.481 14.8251 10.5696 14.6087 10.6263V18.3713C15.6573 18.652 16.4348 19.6297 16.4348 20.8043C16.4348 22.1982 15.3458 23.3261 14 23.3261C12.6542 23.3261 11.5652 22.1982 11.5652 20.8043C11.5652 19.6297 12.3427 18.652 13.3913 18.3713V10.6263C12.9847 10.5179 12.5971 10.3086 12.2785 9.9786C11.4772 9.14869 11.3607 7.88782 11.91 6.92247L9.09477 4.00671L0.734715 12.6653C-0.244905 13.6775 -0.244905 15.3225 0.734715 16.3347L12.2286 28.239C12.716 28.7463 13.358 29 14 29C14.642 29 15.284 28.7463 15.7714 28.239L27.2653 16.3347C28.2449 15.3225 28.2449 13.6775 27.2653 12.6653Z" fill="white"/>
</svg>
