<svg width="28" height="30" viewBox="0 0 28 30" fill="none" xmlns="http://www.w3.org/2000/svg">
<g clip-path="url(#clip0_149_22)">
<path d="M9.02928 23.1913C9.02928 23.1913 7.5857 23.8568 10.0566 24.082C13.0501 24.3527 14.58 24.3139 17.8788 23.8189C17.8788 23.8189 18.7461 24.25 19.9573 24.6234C12.5623 27.1359 3.22086 24.4779 9.02928 23.1913Z" fill="white"/>
<path d="M8.12567 19.9126C8.12567 19.9126 6.50656 20.8627 8.97931 21.0654C12.177 21.327 14.7023 21.3484 19.072 20.6813C19.072 20.6813 19.6764 21.1671 20.6268 21.4327C11.6857 23.5053 1.72701 21.5961 8.12567 19.9126Z" fill="white"/>
<path d="M15.7436 14.3509C17.5657 16.014 15.2648 17.5105 15.2648 17.5105C15.2648 17.5105 19.8915 15.6171 17.7667 13.2461C15.7821 11.035 14.2603 9.93642 22.4991 6.14856C22.4991 6.14856 9.56686 8.70899 15.7436 14.3509Z" fill="white"/>
<path d="M25.5243 25.6163C25.5243 25.6163 26.5926 26.3141 24.3478 26.8539C20.0793 27.879 6.58174 28.1885 2.83218 26.8948C1.48431 26.4299 4.01195 25.7848 4.80704 25.6495C5.63625 25.5069 6.11011 25.5335 6.11011 25.5335C4.61115 24.6964 -3.5786 27.1772 1.95013 27.8876C17.0278 29.826 29.4352 27.0148 25.5243 25.6163Z" fill="white"/>
<path d="M9.7236 16.5156C9.7236 16.5156 2.8579 17.8083 7.29228 18.2778C9.16462 18.4765 12.8971 18.4315 16.3738 18.2006C19.2151 18.0106 22.0681 17.6066 22.0681 17.6066C22.0681 17.6066 21.0662 17.9468 20.3414 18.3391C13.3694 19.7927 -0.0992057 19.1165 3.77823 17.6296C7.05739 16.3731 9.7236 16.5156 9.7236 16.5156Z" fill="white"/>
<path d="M22.0399 21.9731C29.1273 19.0535 25.8503 16.2479 23.5631 16.6259C23.0025 16.7184 22.7525 16.7985 22.7525 16.7985C22.7525 16.7985 22.9606 16.5401 23.3581 16.4282C27.883 15.1671 31.363 20.1476 21.8975 22.1202C21.8975 22.1203 22.0071 22.0426 22.0399 21.9731Z" fill="white"/>
<path d="M17.7667 0.0322266C17.7667 0.0322266 21.6918 3.14483 14.0439 7.93113C7.91108 11.7706 12.6454 13.9597 14.0414 16.4609C10.4615 13.9005 7.83441 11.6465 9.59689 9.54873C12.1838 6.46938 19.3504 4.9764 17.7667 0.0322266Z" fill="white"/>
<path d="M10.42 29.8843C17.223 30.2295 27.6697 29.6928 27.9172 27.141C27.9172 27.141 27.4416 28.1084 22.2949 28.8766C16.4884 29.7428 9.32689 29.6417 5.07935 29.0865C5.07945 29.0865 5.94887 29.657 10.42 29.8843Z" fill="white"/>
</g>
<defs>
<clipPath id="clip0_149_22">
<rect width="28" height="30" fill="white"/>
</clipPath>
</defs>
</svg>
