<svg width="28" height="30" viewBox="0 0 28 30" fill="none" xmlns="http://www.w3.org/2000/svg">
<path fill-rule="evenodd" clip-rule="evenodd" d="M19.795 13.4255C19.714 12.3029 19.4677 11.2203 19.1252 10.1597C18.4155 7.79161 17.2767 5.69583 15.6726 3.89255C15.2671 3.43646 14.816 3.01856 14.5332 2.45091C14.3542 2.09185 14.1838 1.72786 14.0095 1.36599L13.899 1.06763C13.8804 1.13606 13.8686 1.16044 13.8679 1.18505C13.8537 1.77497 13.5418 2.17505 13.1533 2.54841C12.7164 2.96864 12.3098 3.42474 11.89 3.86513L10.5992 5.68458C10.2509 6.37013 9.90309 7.05567 9.55528 7.74122L8.85747 9.76083L8.83647 9.79224C8.45234 11.1441 8.2629 12.534 8.16972 13.9379C8.13472 14.4654 8.17453 15.0008 8.20231 15.5311C8.2419 16.2893 8.36484 17.0347 8.54925 17.7683C9.21906 20.4336 10.5784 22.6444 12.4367 24.5227C12.7821 24.8717 13.1364 25.189 13.4969 25.5211C13.5586 25.295 13.6078 25.0688 13.6638 24.8426C13.7198 24.6174 13.7765 24.3933 13.8143 24.1674C13.7763 24.3933 13.7336 24.6174 13.6914 24.8426L13.5107 25.5211L13.6722 26.1073L13.8218 27.0176L13.8931 27.9676C13.8924 28.1604 13.8852 28.3538 13.8962 28.5465C13.8988 28.5957 13.9592 28.6411 13.9928 28.6885L14.2938 28.8017L14.6075 28.9325L14.5537 28.088L14.5513 27.2565L14.6596 25.9897L14.7381 25.7138L14.9628 25.2872C15.2402 25.0482 15.5379 24.8311 15.7905 24.5651C16.2477 24.0837 16.7038 23.5962 17.1129 23.0691C17.6453 22.3859 18.0999 21.6372 18.4672 20.8388C18.7126 20.3035 18.9436 19.7574 19.1348 19.1979C19.3032 18.7048 19.4076 18.1866 19.5403 17.6794C19.5522 17.6429 19.5679 17.607 19.5753 17.5697C19.8497 16.2008 19.8958 14.8179 19.795 13.4255Z" fill="white"/>
</svg>
