<svg width="30" height="30" viewBox="0 0 30 30" fill="none" xmlns="http://www.w3.org/2000/svg">
<path d="M27.6276 23.2178C25.9907 23.1721 24.7409 23.3281 23.6716 23.787C23.3681 23.9179 22.884 23.9208 22.8345 24.3087C23.0014 24.4872 23.027 24.7535 23.1601 24.9731C23.415 25.3928 23.846 25.9572 24.2303 26.2537C24.6503 26.5762 25.0831 26.922 25.5334 27.2015C26.3348 27.6996 27.229 27.9839 27.9992 28.4821C28.4542 28.7764 28.9051 29.1465 29.349 29.4784C29.5683 29.642 29.716 29.8971 30 30V29.9533C29.8505 29.7591 29.812 29.4915 29.6744 29.2889L29.0692 28.672C28.4776 27.8719 27.7267 27.1692 26.929 26.5858C26.2926 26.1195 24.8676 25.4904 24.6026 24.7362L24.5559 24.6886C25.0071 24.6362 25.5353 24.4699 25.9524 24.3558C26.652 24.1651 27.2776 24.2146 27.9992 24.0239L28.9767 23.7399V23.5502C28.6117 23.1688 28.3513 22.6632 27.9534 22.3174C26.9109 21.4127 25.7738 20.5097 24.6028 19.7565C23.9535 19.3387 23.1511 19.0667 22.4626 18.7125C22.2307 18.5939 21.8243 18.5312 21.6713 18.3331C21.31 17.8638 21.1128 17.2685 20.8342 16.7208C20.2501 15.574 19.6768 14.3226 19.1587 13.1159C18.8057 12.2936 18.5756 11.4822 18.1355 10.7447C16.0227 7.20422 13.7487 5.0668 10.2255 2.96646C9.47551 2.51974 8.57313 2.34315 7.61934 2.11226L6.08337 2.01774C5.77068 1.88495 5.44602 1.49517 5.15258 1.30543C3.98563 0.553393 0.991624 -1.08132 0.126802 1.06831C-0.418758 2.42451 0.94303 3.74793 1.4299 4.43584C1.77193 4.91725 2.20928 5.45825 2.45318 6.00044C2.61469 6.35744 2.64216 6.71443 2.77972 7.09129C3.11729 8.02038 3.41237 9.03155 3.84995 9.88959C4.07085 10.3241 4.31475 10.7814 4.59458 11.1702C4.76524 11.4085 5.05938 11.5142 5.10633 11.8815C4.81829 12.2919 4.80186 12.9284 4.64059 13.4471C3.91333 15.7848 4.18846 18.6896 5.24577 20.4188C5.57044 20.9507 6.33525 22.0889 7.386 21.6525C8.30575 21.2701 8.10034 20.0879 8.3635 19.0439C8.42313 18.8075 8.38651 18.6336 8.50294 18.4747V18.5223L9.341 20.229C9.96098 21.2469 11.0603 22.3105 11.993 23.0283C12.4763 23.4004 12.8569 24.0433 13.4822 24.261V24.2134H13.4355C13.3144 24.0208 13.1247 23.9414 12.9707 23.7873C12.6066 23.4229 12.2014 22.9704 11.9005 22.5536C11.0523 21.3807 10.303 20.0963 9.62082 18.7599C9.29428 18.1215 9.01094 17.4178 8.73581 16.7682C8.62947 16.5177 8.63135 16.1382 8.41021 16.0092C8.1095 16.4849 7.66559 16.8701 7.43271 17.4317C7.06134 18.3299 7.01274 19.4263 6.87518 20.5619C6.79349 20.5918 6.8294 20.5712 6.78175 20.6095C6.13337 20.4497 5.90613 19.7701 5.6648 19.1861C5.05586 17.7112 4.94224 15.3362 5.47865 13.6371C5.61715 13.1978 6.2444 11.8145 5.9904 11.408C5.86927 11.0034 5.46949 10.7687 5.24577 10.4593C4.96877 10.0769 4.69294 9.57327 4.50115 9.13109C4.0023 7.98138 3.77037 6.68979 3.24476 5.52716C2.99358 4.97109 2.56985 4.40832 2.22148 3.91494C1.83532 3.36724 1.40361 2.96335 1.10454 2.30176C0.998197 2.06632 0.854294 1.68946 1.01111 1.44851C1.06158 1.28485 1.13224 1.21666 1.2907 1.16354C1.56019 0.951304 2.31233 1.2346 2.59286 1.35328C3.33937 1.66912 3.96192 1.97013 4.59458 2.39723C4.89717 2.60181 5.20446 2.99828 5.57114 3.10859H5.99017C6.64489 3.26196 7.37849 3.15525 7.99095 3.34499C9.07292 3.68045 10.0422 4.20207 10.9225 4.76843C13.6038 6.49478 15.7973 8.95092 17.2974 11.883C17.5385 12.3551 17.6432 12.8046 17.8559 13.3054C18.2841 14.3149 18.8242 15.3534 19.2505 16.3413C19.6768 17.3255 20.0914 18.3201 20.6938 19.1396C21.0102 19.5706 22.2316 19.8015 22.7873 20.0407C23.177 20.208 23.8153 20.3829 24.1838 20.61C24.8881 21.0428 25.5703 21.5587 26.2315 22.0324C26.5607 22.2698 27.5767 22.7905 27.6271 23.2185L27.6276 23.2178ZM6.82753 5.14791C6.48643 5.14145 6.24534 5.18524 5.9904 5.24243V5.29004H6.03618C6.19933 5.63029 6.48643 5.84994 6.68808 6.14329L7.15289 7.13962L7.1996 7.09296C7.48764 6.88551 7.61957 6.5546 7.6177 6.04902C7.5022 5.92459 7.48577 5.7705 7.38482 5.62191C7.25289 5.42475 6.99514 5.31349 6.82729 5.14815L6.82753 5.14791Z" fill="white"/>
</svg>
