<svg width="30" height="30" viewBox="0 0 30 30" fill="none" xmlns="http://www.w3.org/2000/svg">
<path d="M15 30C14.5342 30 14.0994 29.8898 13.6957 29.6968L9.56522 27.5195C8.9441 27.2164 9.25466 27.1061 9.44099 27.051C10.2795 26.8029 10.4348 26.7478 11.3043 26.3068C11.3975 26.2517 11.5217 26.2793 11.6149 26.3344L14.7826 28.0156C14.9068 28.0707 15.0621 28.0707 15.1553 28.0156L27.5466 21.6491C27.6708 21.5939 27.7329 21.4837 27.7329 21.3459V8.64033C27.7329 8.50253 27.6708 8.39228 27.5466 8.33716L15.1553 1.99816C15.0311 1.94304 14.8758 1.94304 14.7826 1.99816L2.3913 8.33716C2.26708 8.39228 2.20497 8.53009 2.20497 8.64033V21.3459C2.20497 21.4561 2.26708 21.5939 2.3913 21.6491L5.7764 23.3854C7.6087 24.2122 8.75776 23.2476 8.75776 22.283V9.74276C8.75776 9.5774 8.91304 9.41203 9.13043 9.41203H10.7143C10.9006 9.41203 11.087 9.54984 11.087 9.74276V22.283C11.087 24.4603 9.75155 25.7281 7.42236 25.7281C6.70807 25.7281 6.14907 25.7281 4.56522 25.039L1.30435 23.3854C0.496894 22.972 0 22.2003 0 21.3734V8.66789C0 7.84107 0.496894 7.06936 1.30435 6.65595L13.6957 0.289389C14.472 -0.096463 15.528 -0.096463 16.3043 0.289389L28.6957 6.65595C29.5031 7.06936 30 7.84107 30 8.66789V21.3734C30 22.2003 29.5031 22.972 28.6957 23.3854L16.3043 29.752C15.9006 29.9173 15.4348 30 15 30ZM18.8199 21.2632C13.3851 21.2632 12.2671 19.0583 12.2671 17.1842C12.2671 17.0188 12.4224 16.8535 12.6398 16.8535H14.2547C14.441 16.8535 14.5963 16.9637 14.5963 17.1291C14.8447 18.5898 15.559 19.3064 18.8509 19.3064C21.4596 19.3064 22.5776 18.7827 22.5776 17.5425C22.5776 16.8259 22.2671 16.3022 18.1988 15.944C14.8137 15.6408 12.7019 14.9793 12.7019 12.5815C12.7019 10.3491 14.8137 9.02618 18.354 9.02618C22.3292 9.02618 24.2857 10.2389 24.5342 12.8847C24.5342 12.9674 24.5031 13.0501 24.441 13.1328C24.3789 13.1879 24.2857 13.243 24.1925 13.243H22.5776C22.4224 13.243 22.2671 13.1328 22.236 12.9949C21.8634 11.4791 20.9006 10.983 18.354 10.983C15.4969 10.983 15.1553 11.865 15.1553 12.5264C15.1553 13.3257 15.559 13.5737 19.4099 14.0147C23.2298 14.4557 25.0311 15.0896 25.0311 17.4598C25 19.8852 22.764 21.2632 18.8199 21.2632Z" fill="white"/>
</svg>
