<svg width="30" height="30" viewBox="0 0 30 30" fill="none" xmlns="http://www.w3.org/2000/svg">
<path d="M14.4275 7.04816C13.4069 5.51754 13.1863 3.47191 13.1381 2.63129C10.5456 3.19191 7.97 4.19754 8.11875 4.93816C8.1375 5.03129 8.255 5.14316 8.45 5.25191L8.145 5.79754C7.7725 5.58879 7.56313 5.34816 7.50625 5.06066C7.33813 4.22254 8.2875 3.46441 10.4075 2.74254C11.855 2.24941 13.315 1.95504 13.3769 1.94316L13.75 1.86816V2.25004C13.75 2.27629 13.7663 4.93004 14.9475 6.70191L14.4275 7.04816Z" fill="white"/>
<path d="M15.4695 26.875H15.3126C10.1926 26.875 4.49449 25.2669 3.82137 22.5756C3.41074 20.9319 4.75387 19.1156 7.70512 17.325L8.03012 17.8588C5.37449 19.4706 4.09512 21.0913 4.42824 22.4244C5.01262 24.7606 10.4126 26.2169 15.1489 26.2494C15.712 25.4075 18.7376 20.4619 17.0107 13.8288L17.6151 13.6713C19.5832 21.2288 15.6039 26.6944 15.5639 26.7488L15.4695 26.875Z" fill="white"/>
<path d="M6.20682 24.5663C5.86994 24.5663 5.70307 24.5294 5.67557 24.5225C5.56557 24.4957 5.47932 24.4113 5.44932 24.3025C5.41869 24.1938 5.44994 24.0769 5.52994 23.9975C5.57494 23.9525 10.0281 19.4925 10.6293 15.8863L11.2456 15.9888C10.7287 19.0913 7.67369 22.6282 6.46057 23.9307C7.67244 23.8613 10.7324 23.2938 16.6068 20.0057C12.0224 19.5032 11.2974 15.8332 11.2899 15.7938L11.9043 15.6807C11.9337 15.8344 12.6706 19.4375 17.6818 19.4375C17.6837 19.4375 17.6849 19.4375 17.6868 19.4375C17.8287 19.4375 17.9518 19.5325 17.9881 19.6688C18.0256 19.805 17.9656 19.9494 17.8437 20.0207C10.8218 24.0888 7.41682 24.5657 6.20682 24.5663Z" fill="white"/>
<path d="M9.07738 26.0625C8.94801 26.0625 8.83051 25.9825 8.78488 25.8594C8.73551 25.7275 8.78051 25.5781 8.89551 25.4956C8.91676 25.48 10.0286 24.6594 11.2118 22.8531C10.7568 22.6519 10.2961 22.4169 9.83926 22.1425C9.28426 21.8094 8.86488 21.4519 8.55176 21.0856C6.94551 21.5094 5.46301 21.6769 4.16113 21.5662L4.21363 20.9437C5.38613 21.0431 6.71926 20.9044 8.16426 20.5437C7.18113 18.8637 8.08363 17.1962 8.09613 17.1737L8.64238 17.4781C8.60051 17.5544 7.85176 18.9594 8.79801 20.3737C10.1736 19.9787 11.6411 19.3944 13.1599 18.635C13.5093 17.4881 13.7824 16.1837 13.9255 14.7125C13.9355 14.6119 13.993 14.5225 14.0805 14.4719C14.168 14.4212 14.2749 14.4169 14.3668 14.4587C14.3868 14.4681 16.4068 15.3906 17.8693 15.9925C17.9755 16.0362 18.0493 16.135 18.0611 16.2494C18.0736 16.3637 18.0218 16.475 17.9261 16.54C16.4955 17.515 15.0743 18.3606 13.6899 19.0662C13.2511 20.4569 12.708 21.6144 12.153 22.5606C14.4668 23.425 16.4749 23.4381 16.5005 23.4381C16.643 23.4381 16.7674 23.5344 16.803 23.6725C16.8386 23.8106 16.7768 23.955 16.6524 24.0244C13.8149 25.6006 9.29801 26.0444 9.10738 26.0625C9.09738 26.0619 9.08738 26.0625 9.07738 26.0625ZM11.818 23.1044C11.168 24.1131 10.5293 24.8375 10.0518 25.3106C11.3005 25.1269 13.4899 24.7244 15.3068 23.9737C14.4368 23.8669 13.1774 23.6294 11.818 23.1044ZM9.22926 20.8944C9.47488 21.1394 9.78113 21.3787 10.1605 21.6069C10.6205 21.8831 11.0874 22.1175 11.548 22.3162C12.0193 21.5262 12.4861 20.5781 12.8868 19.4612C11.6236 20.0625 10.3974 20.5425 9.22926 20.8944ZM14.5011 15.2056C14.373 16.3106 14.1755 17.3187 13.9305 18.2369C14.968 17.6837 16.0268 17.0519 17.0943 16.3456C16.1261 15.9356 15.0618 15.4587 14.5011 15.2056Z" fill="white"/>
<path d="M11.2024 6.62494C11.1293 6.62494 11.0568 6.59869 10.9993 6.54994C9.99303 5.68869 8.80865 3.93619 8.75865 3.86182C8.67803 3.74244 8.69053 3.58307 8.7874 3.47682C8.88365 3.36994 9.0424 3.34494 9.1674 3.41307C9.17428 3.41494 9.75365 3.65369 13.678 4.30744C13.7912 4.32619 13.8843 4.40494 13.9218 4.51244C13.9599 4.61994 13.9355 4.73994 13.8593 4.82494C12.7605 6.04557 11.3724 6.58307 11.3137 6.60494C11.2774 6.61807 11.2393 6.62494 11.2024 6.62494ZM9.77928 4.21619C10.1737 4.74682 10.7418 5.46369 11.2618 5.94682C11.5812 5.80119 12.2974 5.43557 12.9768 4.82307C11.3624 4.54744 10.3774 4.35119 9.77928 4.21619Z" fill="white"/>
<path d="M13.6518 15.25C13.6093 15.25 13.5662 15.2412 13.5262 15.2237C13.4018 15.1687 13.3268 15.04 13.3412 14.905C13.5237 13.1868 10.8875 12.4975 10.8606 12.4912C10.7518 12.4637 10.6656 12.3793 10.6362 12.2712C10.6068 12.1631 10.6375 12.0468 10.7168 11.9675C10.8462 11.8381 13.9287 8.7812 17.7962 7.10245C17.9043 7.05558 18.0268 7.07308 18.1181 7.1462C18.2087 7.21995 18.2506 7.33808 18.2268 7.45183C17.4856 11.0418 14.0331 14.9793 13.8868 15.145C13.825 15.2131 13.7387 15.25 13.6518 15.25ZM11.5343 12.0531C12.2743 12.3312 13.5706 12.975 13.8987 14.1506C14.8043 13.0206 16.7375 10.4175 17.4593 7.94183C14.7175 9.26058 12.4087 11.2493 11.5343 12.0531Z" fill="white"/>
<path d="M8.17432 17.725L7.87744 17.175C9.05432 16.5407 10.4024 15.3732 11.5068 14.0163C10.5668 14.66 10.0287 15.1007 10.0118 15.115L9.61244 14.6338C9.63682 14.6138 10.7149 13.7294 12.5068 12.6213C12.9987 11.83 13.3768 11.0163 13.5712 10.2363C13.6043 10.1038 13.6331 9.97565 13.6562 9.8519C12.4531 9.42253 11.3431 9.16815 10.5806 9.05878C10.4649 9.04253 10.3687 8.96315 10.3299 8.85378C10.2912 8.7444 10.3168 8.6219 10.3949 8.5369C10.4481 8.4794 11.7174 7.1194 13.3037 6.37253C13.4268 6.3144 13.5743 6.34315 13.6668 6.44378C13.7087 6.4894 14.5668 7.45315 14.3487 9.4469C15.0706 9.72815 15.8143 10.07 16.5306 10.4769C18.2549 9.7019 20.2131 9.0044 22.2987 8.58315C22.4062 8.5619 22.5256 8.60065 22.5993 8.68815C22.6724 8.77565 22.6924 8.89628 22.6512 9.00253C21.8387 11.085 19.6599 13.3094 19.5674 13.4032C19.5043 13.4669 19.4181 13.4988 19.3281 13.4957C19.2387 13.4907 19.1562 13.4482 19.0999 13.3782C18.3999 12.4982 17.4849 11.7694 16.4981 11.1763C15.1387 11.8038 13.9349 12.475 12.9456 13.0819C11.6831 15.0525 9.77744 16.8619 8.17432 17.725ZM17.1824 10.8725C17.9887 11.3925 18.7393 12.0038 19.3599 12.715C19.8774 12.1538 21.1193 10.735 21.8237 9.32628C20.1674 9.70753 18.5999 10.2594 17.1824 10.8725ZM14.2493 10.0763C14.2287 10.1782 14.2049 10.2825 14.1787 10.3888C14.0474 10.9132 13.8387 11.4519 13.5712 11.9894C14.2562 11.5982 15.0143 11.1944 15.8324 10.8032C15.3087 10.5257 14.7743 10.2844 14.2493 10.0763ZM11.2799 8.54503C11.9743 8.68128 12.8299 8.90378 13.7431 9.22378C13.8381 8.0719 13.5268 7.36628 13.3387 7.05378C12.4787 7.50253 11.7256 8.13378 11.2799 8.54503Z" fill="white"/>
<path d="M11.2812 11.5625C11.2812 14.3 8.9999 16.475 7.35615 18.0625C7.08115 18.3312 6.1499 18.375 6.1499 18.375C6.38115 18.1375 6.64365 17.8875 6.9249 17.6187C8.4874 16.1062 10.6562 14.0375 10.6562 11.5625C10.6562 8.63122 9.4749 7.47497 8.54365 6.54997C8.13115 6.13122 7.78115 5.73123 7.56865 5.24373L7.7624 5.16248C7.9749 5.25623 8.21865 5.36248 8.40615 5.44373C8.55615 5.66248 8.75615 5.87498 8.9874 6.10623C9.94365 7.06248 11.2812 8.37497 11.2812 11.5625Z" fill="white"/>
<path d="M26.8344 12.3712C26.8344 12.3712 26.4562 12.425 26.35 12.4375C20.875 13.0437 15.225 14.6187 11.9938 15.9124C10.825 16.3812 9.6125 16.95 8.50625 17.5875C8.5 17.5937 8.49375 17.5937 8.48125 17.6C7.83125 17.975 6.25 18.75 4.96875 19.4312C6.84375 17.4375 10.3562 15.9 11.7562 15.3375C14.925 14.0687 20.3687 12.5375 25.725 11.8812C25.0938 11.1437 23.55 9.5812 20.5125 8.4187C18.7375 7.7312 16.0375 7.3437 13.6562 6.99995C9.86875 6.4562 7.7125 6.0937 7.50625 5.06245C7.4625 4.8562 7.49375 4.64995 7.5875 4.44995C7.79375 4.78745 8.0875 5.02495 8.28125 5.16245C8.375 5.22495 8.44375 5.26245 8.46875 5.27495L8.475 5.2812C9.3625 5.74995 11.7562 6.0937 13.75 6.3812C16.1625 6.7312 18.8937 7.12495 20.7375 7.8312C25.0312 9.48745 26.5125 11.8562 26.575 11.9562C26.6313 12.05 26.8344 12.3712 26.8344 12.3712Z" fill="white"/>
</svg>
